<?xml version="1.0" encoding="UTF-8"?>
<!-- Generator: visioncortex VTracer 0.6.4 -->
<svg version="1.1" xmlns="http://www.w3.org/2000/svg" width="512" height="512">
<path d="M0 0 C9.63 6.84 18.61 14.64 27.29 22.63 C30.71 21.14 33.03 19.18 35.73 16.63 C58.81 -4.4 88.3 -24.06 120.61 -22.81 C130.02 -22.14 137.52 -18.24 144.26 -11.73 C159.74 6.22 161.47 32.3 160 54.96 C159.85 56.79 159.7 58.62 159.54 60.44 C159.42 61.91 159.42 61.91 159.29 63.4 C156.82 89.58 156.82 89.58 153.29 96.63 C155.15 96.99 155.15 96.99 157.05 97.35 C163 98.68 168.53 100.85 174.17 103.13 C175.26 103.57 176.36 104.01 177.49 104.47 C192.91 110.82 207.15 118.33 220.29 128.63 C221.13 129.28 221.97 129.94 222.84 130.61 C232.27 138.47 240.9 149.32 243.29 161.63 C244.39 176.73 241.05 186.97 231.29 198.63 C211.63 221.03 182.84 232.21 155.29 241.63 C155.83 246.26 156.48 250.85 157.27 255.45 C161.96 283.93 165.3 317.52 149.66 343.32 C143.16 352.25 135.12 357.76 124.42 360.32 C94.66 363.29 66.72 346 44.42 328 C39.26 323.68 34.25 319.18 29.29 314.63 C27.93 315.81 27.93 315.81 26.54 317 C25.9 317.56 25.25 318.11 24.58 318.68 C22.97 320.05 21.36 321.44 19.75 322.83 C-4.19 343.28 -32.93 362.86 -65.71 360.63 C-75.62 359.02 -83.78 353.67 -90.08 345.93 C-100.98 330.48 -102.91 311.97 -102.96 293.57 C-102.96 292.91 -102.96 292.25 -102.96 291.57 C-102.96 279.08 -101.71 266.96 -99.71 254.63 C-99.49 253.19 -99.27 251.76 -99.06 250.32 C-98.63 247.42 -98.18 244.53 -97.71 241.63 C-98.92 241.23 -100.13 240.83 -101.38 240.41 C-131.19 230.37 -167 215.97 -182.46 186.63 C-187.23 176.57 -188.03 167.19 -184.79 156.51 C-178.51 139.84 -165.21 129.06 -150.71 119.63 C-149.77 119.02 -148.82 118.4 -147.86 117.77 C-134.68 109.68 -112.51 96.63 -96.71 96.63 C-96.89 96 -97.07 95.36 -97.26 94.71 C-101.12 80.37 -103.12 65.45 -103.71 50.63 C-103.75 49.69 -103.79 48.74 -103.83 47.77 C-104.29 27.04 -101.4 2.98 -86.55 -12.69 C-61.37 -35.67 -23.2 -15.85 0 0 Z M62.29 21.63 C61.38 22.33 60.47 23.03 59.53 23.75 C53.92 28.16 48.57 32.84 43.29 37.63 C46.09 42.07 49.21 45.84 52.86 49.63 C57.14 54.18 61.19 58.83 65.04 63.75 C65.45 64.28 65.86 64.8 66.29 65.34 C66.7 65.87 67.11 66.4 67.53 66.95 C67.97 67.5 68.41 68.06 68.87 68.63 C70.29 70.63 70.29 70.63 71.75 73.38 C74.48 78.11 76.9 81.49 82.27 83.02 C87.11 84.07 92 84.61 96.92 85.13 C98.59 85.34 100.27 85.55 101.95 85.77 C104.41 86.09 106.87 86.41 109.33 86.7 C115.5 87.46 121.47 88.62 127.52 90.06 C130.47 90.76 130.47 90.76 134.29 90.63 C134.94 87.15 135.59 83.67 136.23 80.19 C136.5 78.73 136.5 78.73 136.78 77.24 C141.03 54.16 144.18 24.02 130.29 3.63 C124.74 -1.51 119.83 -2.86 112.42 -2.67 C93.75 -0.9 76.79 10.44 62.29 21.63 Z M-71.46 1.88 C-75.55 6.88 -78.2 11.3 -79.89 17.57 C-80.22 18.73 -80.54 19.89 -80.88 21.09 C-86.12 43.38 -82.28 67.54 -77.71 89.63 C-73.96 90.96 -71.12 90.32 -67.27 89.52 C-65.99 89.26 -64.72 89 -63.4 88.74 C-61.32 88.31 -59.24 87.87 -57.17 87.44 C-43.2 84.53 -43.2 84.53 -36.45 84.16 C-26.18 83.7 -26.18 83.7 -17.93 78.13 C-15.02 74.55 -12.55 70.73 -10.13 66.82 C-8 63.54 -5.52 60.63 -2.96 57.69 C-2.51 57.17 -2.07 56.65 -1.61 56.11 C2 51.9 5.73 47.81 9.52 43.75 C11.17 41.77 12.26 39.98 13.29 37.63 C-5.3 19.83 -31.29 -1.54 -58.24 -2.46 C-63.4 -2.28 -67.41 -1.43 -71.46 1.88 Z M25.66 54.99 C18.08 62.64 11.55 70.87 5.29 79.63 C20.47 79.63 35.65 79.63 51.29 79.63 C47.36 74.39 43.44 69.32 39.17 64.38 C38.66 63.78 38.14 63.18 37.62 62.57 C33.64 57.92 33.64 57.92 29.29 53.63 C27.19 53.42 27.19 53.42 25.66 54.99 Z M-11.71 101.63 C-13.23 103.47 -13.23 103.47 -14.64 105.8 C-15.48 107.12 -15.48 107.12 -16.34 108.47 C-16.93 109.43 -17.53 110.39 -18.14 111.38 C-18.76 112.37 -19.38 113.35 -20.02 114.37 C-28.07 127.29 -35.57 140.53 -42.77 153.94 C-43.13 154.6 -43.49 155.27 -43.85 155.95 C-44.85 157.83 -45.79 159.72 -46.71 161.63 C-47.04 162.29 -47.38 162.94 -47.72 163.62 C-49.49 167.49 -49.86 169.08 -48.71 173.32 C-48.07 174.63 -47.4 175.92 -46.71 177.19 C-46.34 177.91 -45.98 178.63 -45.6 179.36 C-44.34 181.81 -43.03 184.22 -41.71 186.63 C-40.98 187.98 -40.98 187.98 -40.23 189.35 C-34.55 199.78 -28.59 210.02 -22.27 220.07 C-21.8 220.82 -21.33 221.57 -20.84 222.34 C-18.51 225.98 -16.11 229.57 -13.61 233.1 C-13.15 233.76 -12.69 234.41 -12.21 235.08 C-8.84 238.54 -3.65 237.93 0.92 238.18 C1.67 238.23 2.41 238.27 3.18 238.31 C10.8 238.71 18.4 238.78 26.02 238.76 C28.29 238.75 30.56 238.76 32.83 238.77 C40.41 238.77 47.97 238.63 55.54 238.25 C56.23 238.22 56.93 238.19 57.64 238.15 C64.93 237.74 64.93 237.74 70.9 233.96 C71.3 233.3 71.7 232.63 72.12 231.95 C72.58 231.19 73.05 230.44 73.53 229.67 C74.01 228.85 74.49 228.03 74.98 227.19 C75.5 226.34 76.01 225.49 76.55 224.61 C78.15 221.96 79.72 219.3 81.29 216.63 C82.23 215.07 83.16 213.51 84.09 211.95 C91.32 199.78 97.86 187.24 104.29 174.63 C104.68 173.92 105.06 173.21 105.45 172.48 C106.67 169.79 106.17 168.43 105.29 165.63 C104.18 163.17 103.03 160.78 101.79 158.38 C101.43 157.68 101.08 156.97 100.71 156.25 C99.95 154.77 99.19 153.29 98.42 151.82 C97.36 149.77 96.32 147.71 95.29 145.65 C83.91 120.12 83.91 120.12 66.29 100.63 C54.62 99.38 42.84 99.47 31.11 99.5 C28.23 99.5 25.35 99.5 22.47 99.49 C5.15 98.83 5.15 98.83 -11.71 101.63 Z M95.29 104.63 C96.81 108.84 98.95 112.53 101.29 116.32 C106.56 124.94 111.43 133.77 116.29 142.63 C116.95 142.63 117.61 142.63 118.29 142.63 C119.72 138.56 121.15 134.48 122.57 130.4 C123.05 129.02 123.53 127.63 124.02 126.25 C124.72 124.25 125.41 122.26 126.11 120.27 C126.52 119.07 126.94 117.87 127.38 116.63 C128.44 113.67 128.44 113.67 128.29 110.63 C124.67 109.81 121.04 109 117.42 108.19 C116.4 107.96 115.39 107.73 114.35 107.49 C108 106.09 101.77 105.1 95.29 104.63 Z M-48.78 105.69 C-49.92 105.91 -51.06 106.13 -52.24 106.36 C-53.43 106.59 -54.61 106.83 -55.83 107.07 C-57.02 107.3 -58.22 107.53 -59.45 107.76 C-65.64 108.93 -65.64 108.93 -71.71 110.63 C-70.11 118.24 -67.81 125.46 -65.14 132.75 C-64.84 133.6 -64.53 134.44 -64.22 135.3 C-63.93 136.09 -63.63 136.89 -63.33 137.7 C-63.06 138.41 -62.8 139.12 -62.53 139.85 C-61.74 141.83 -61.74 141.83 -59.71 143.63 C-59.19 142.65 -59.19 142.65 -58.66 141.65 C-52.55 130.16 -46.47 118.76 -39.22 107.95 C-37.62 105.95 -37.62 105.95 -37.71 104.63 C-41.55 104.51 -45.01 104.96 -48.78 105.69 Z M148.29 116.63 C148.04 117.39 147.78 118.16 147.52 118.94 C146.53 121.89 145.53 124.83 144.53 127.77 C144.08 129.09 143.63 130.41 143.18 131.74 C140.84 138.64 138.45 145.46 135.52 152.14 C135.09 153.11 134.66 154.09 134.22 155.1 C133.42 156.91 132.58 158.7 131.72 160.49 C129.88 164.61 128.82 167.46 130.23 171.86 C130.9 173.46 131.59 175.05 132.29 176.63 C133.14 178.85 133.98 181.07 134.82 183.29 C135.52 185.12 136.23 186.96 136.94 188.79 C141.11 199.63 145.11 210.45 148.29 221.63 C174.23 213.76 206.31 202.06 221.29 177.63 C223.76 172.58 223.78 167.98 222.29 162.63 C216.22 149.85 204.14 141.53 192.29 134.63 C191.16 133.96 190.03 133.29 188.87 132.61 C181.28 128.27 173.36 124.9 165.23 121.69 C164.24 121.3 163.25 120.91 162.24 120.51 C157.56 118.71 153.27 117.35 148.29 116.63 Z M-131.71 132.63 C-132.34 132.97 -132.98 133.31 -133.63 133.66 C-146 140.36 -160.64 149.81 -165.71 163.63 C-167.01 170.48 -165.58 175.93 -161.71 181.63 C-146.69 202.74 -115.83 215.35 -91.71 221.63 C-89.34 215.42 -87.17 209.16 -85.02 202.88 C-82.03 194.14 -78.78 185.56 -75.06 177.1 C-74.73 176.34 -74.41 175.57 -74.08 174.78 C-73.79 174.12 -73.5 173.46 -73.2 172.78 C-72.12 168.07 -73.91 163.7 -75.71 159.38 C-76.32 157.9 -76.32 157.9 -76.95 156.38 C-77.6 154.8 -77.6 154.8 -78.27 153.19 C-83.19 141.15 -87.57 128.96 -91.71 116.63 C-104.52 116.63 -120.59 126.51 -131.71 132.63 Z M-60.71 194.63 C-64.97 205.18 -68.85 215.6 -71.71 226.63 C-65.86 229.16 -59.81 230.13 -53.58 231.32 C-51.79 231.67 -51.79 231.67 -49.97 232.04 C-48.83 232.26 -47.69 232.48 -46.51 232.7 C-45.47 232.91 -44.43 233.11 -43.35 233.32 C-40.61 233.83 -40.61 233.83 -37.71 232.63 C-38.02 232.12 -38.33 231.61 -38.65 231.08 C-45.94 219.07 -52.98 206.96 -59.71 194.63 C-60.04 194.63 -60.37 194.63 -60.71 194.63 Z M116.29 194.63 C115.71 195.78 115.13 196.93 114.53 198.12 C108.41 210.05 101.63 221.4 94.29 232.63 C98.15 233.91 100.39 233.21 104.37 232.41 C105.05 232.28 105.73 232.15 106.44 232.01 C108.62 231.58 110.8 231.13 112.98 230.69 C114.46 230.4 115.94 230.1 117.42 229.81 C121.05 229.09 124.67 228.36 128.29 227.63 C127.73 222.93 126.8 218.72 125.23 214.26 C124.82 213.11 124.42 211.96 124.01 210.77 C123.37 209 123.37 209 122.73 207.19 C122.31 205.98 121.88 204.77 121.44 203.53 C120.4 200.56 119.35 197.59 118.29 194.63 C117.63 194.63 116.97 194.63 116.29 194.63 Z M-76.71 246.63 C-83.06 272.53 -88.3 305.58 -75.73 330.56 C-72.92 335.13 -69.48 337.88 -64.58 339.94 C-46.91 343.08 -28.34 332.73 -14.24 322.96 C-4.59 316.09 4.46 308.5 13.29 300.63 C11.73 296.95 9.46 294.46 6.73 291.57 C0.42 284.75 -5.44 277.63 -11.05 270.23 C-11.93 269.07 -11.93 269.07 -12.82 267.9 C-13.98 266.37 -15.13 264.83 -16.28 263.29 C-16.81 262.59 -17.34 261.88 -17.89 261.16 C-18.36 260.53 -18.83 259.89 -19.32 259.24 C-22.26 255.83 -24.97 255.27 -29.25 254.73 C-30.37 254.59 -31.5 254.44 -32.66 254.28 C-33.87 254.13 -35.08 253.98 -36.33 253.82 C-49.92 251.99 -63.3 249.49 -76.71 246.63 Z M127.83 247.58 C115.09 250.38 102.45 252.62 89.47 254.02 C82.93 254.77 82.93 254.77 77.28 257.88 C76.63 258.79 75.97 259.69 75.29 260.63 C74.54 261.58 73.78 262.53 73 263.5 C71.85 265.05 71.85 265.05 70.67 266.63 C63.29 276.38 55.34 285.6 47.07 294.61 C45.15 296.71 45.15 296.71 43.29 299.63 C62.2 318.12 88.1 339.12 115.67 340.13 C121.54 339.91 124.84 339.52 129.29 335.63 C139.03 323.93 140 307.75 139.79 293.19 C139.79 292.47 139.79 291.74 139.78 290.99 C139.69 275.98 138.04 261.19 134.29 246.63 C132 246.63 130.07 247.08 127.83 247.58 Z M6.29 258.63 C8.92 263.01 8.92 263.01 11.96 266.93 C12.46 267.51 12.96 268.1 13.47 268.69 C13.99 269.29 14.51 269.89 15.04 270.5 C15.58 271.12 16.11 271.74 16.66 272.37 C20.37 276.65 24.2 280.72 28.29 284.63 C33.38 280.45 37.77 276.07 42.04 271.07 C42.61 270.42 43.17 269.77 43.75 269.11 C46.7 265.68 48.93 262.57 51.29 258.63 C36.44 258.63 21.59 258.63 6.29 258.63 Z " fill="#61DAFB" transform="translate(227.70703125,41.37060546875)"/>
<path d="M0 0 C0.89 0.68 1.77 1.36 2.69 2.06 C3.68 2.78 4.67 3.51 5.69 4.25 C13.77 11.18 17.34 20.68 18.5 31 C19.16 42.39 15.76 52.13 9.01 61.36 C1.73 69.43 -8.97 74.35 -19.7 75.27 C-31.37 75.5 -41.87 71.97 -50.54 64.02 C-60.09 53.9 -62.82 43.97 -62.59 30.41 C-62.09 18.84 -56.15 10.52 -48 2.81 C-34.32 -8.93 -15.17 -8.87 0 0 Z " fill="#61DAFB" transform="translate(278.3125,175.9375)"/>
<path d="M0 0 C1.45 -0.05 2.9 -0.09 4.36 -0.12 C5.17 -0.14 5.98 -0.16 6.81 -0.18 C9 0 9 0 11.28 1.84 C11.83 2.72 12.37 3.6 12.94 4.5 C13.59 5.5 14.23 6.5 14.9 7.54 C15.6 8.69 16.3 9.84 17 11 C17.81 12.29 18.63 13.58 19.44 14.87 C21.08 17.47 22.71 20.09 24.31 22.71 C27.76 28.22 31.4 33.6 35 39 C35.33 26.13 35.66 13.26 36 0 C38.97 0 41.94 0 45 0 C45 18.81 45 37.62 45 57 C36 57 36 57 33.35 54.51 C32.6 53.38 31.89 52.22 31.21 51.04 C30.82 50.43 30.43 49.81 30.02 49.17 C28.78 47.19 27.58 45.19 26.38 43.19 C25.56 41.88 24.75 40.58 23.93 39.28 C22.4 36.83 20.89 34.38 19.4 31.91 C16.33 26.9 13.15 21.96 10 17 C9.67 30.2 9.34 43.4 9 57 C6.36 57 3.72 57 1 57 C0 56 0 56 -0.12 53.75 C-0.12 52.76 -0.12 51.77 -0.11 50.75 C-0.11 49.62 -0.11 48.5 -0.11 47.35 C-0.11 46.13 -0.1 44.91 -0.1 43.65 C-0.1 42.41 -0.09 41.17 -0.09 39.89 C-0.09 36.58 -0.08 33.28 -0.07 29.97 C-0.06 26.6 -0.05 23.23 -0.05 19.86 C-0.04 13.24 -0.02 6.62 0 0 Z " fill="#61DAFB" transform="translate(260,437)"/>
<path d="M0 0 C27 0 27 0 35 4 C39.02 8.92 39.64 13.05 39.39 19.35 C38.45 25.74 35.02 29.15 30 33 C30.36 33.66 30.73 34.31 31.1 34.99 C32.74 37.95 34.37 40.91 36 43.88 C36.57 44.91 37.14 45.94 37.73 47 C38.28 47.99 38.82 48.98 39.38 49.99 C39.88 50.9 40.38 51.81 40.9 52.75 C42 55 42 55 42 57 C39.03 57 36.06 57 33 57 C31.37 54.08 29.75 51.17 28.12 48.25 C27.66 47.43 27.2 46.6 26.73 45.75 C26.29 44.95 25.84 44.15 25.38 43.33 C24.97 42.59 24.57 41.86 24.15 41.11 C23 39 23 39 22.04 36.77 C21.7 36.18 21.35 35.6 21 35 C17.89 34.29 17.89 34.29 14.38 34.25 C11.22 34.13 11.22 34.13 8 34 C8 41.59 8 49.18 8 57 C5.36 57 2.72 57 0 57 C0 38.19 0 19.38 0 0 Z M8 7 C8 13.6 8 20.2 8 27 C10.37 27.06 12.74 27.12 15.19 27.19 C15.93 27.21 16.66 27.24 17.42 27.27 C22.9 27.34 25.83 25.88 29.88 22.38 C31.4 19.17 31.1 16.7 30.81 13.22 C29.58 9.86 28.08 8.79 25 7 C22.04 6.54 19.18 6.62 16.19 6.75 C13.49 6.83 10.78 6.92 8 7 Z " fill="#61DAFB" transform="translate(40,437)"/>
<path d="M0 0 C3.14 2.73 4.89 4.46 5.19 8.69 C5.22 9.8 5.25 10.92 5.28 12.07 C5.34 13.91 5.34 13.91 5.39 15.79 C5.45 17.72 5.45 17.72 5.5 19.69 C5.57 22.21 5.64 24.74 5.72 27.26 C5.75 28.39 5.78 29.51 5.81 30.67 C6.01 34.16 6.46 37.55 7 41 C4.03 41 1.06 41 -2 41 C-2.33 40.01 -2.66 39.02 -3 38 C-3.7 38.49 -4.4 38.97 -5.12 39.48 C-8.37 41.2 -10.35 41.4 -14 41.38 C-15.01 41.38 -16.02 41.39 -17.06 41.4 C-21.17 40.84 -23.8 39.16 -26.75 36.31 C-28.55 32.98 -29.12 29.74 -29 26 C-27.37 21.3 -25.25 18.59 -21 16 C-15.03 13.96 -9.25 13.8 -3 14 C-4.1 8.59 -4.1 8.59 -8 5 C-13.08 4.43 -13.08 4.43 -17.38 6.88 C-19.03 8.9 -19.03 8.9 -20 11 C-22.31 11 -24.62 11 -27 11 C-28 8 -28 8 -27 5.06 C-24.14 0.69 -20.91 -0.91 -16 -2.75 C-9.84 -3.52 -5.53 -2.92 0 0 Z M-20.25 24.31 C-21.24 26.99 -21.24 26.99 -20.31 29.69 C-19.08 32.1 -19.08 32.1 -17 34 C-11.66 34.44 -8.36 34.44 -4 31 C-2.8 28.59 -2.9 27.05 -2.94 24.38 C-2.95 23.56 -2.96 22.74 -2.96 21.9 C-2.98 21.27 -2.99 20.65 -3 20 C-9.05 19.88 -15.84 19.78 -20.25 24.31 Z " fill="#61DAFB" transform="translate(157,453)"/>
<path d="M0 0 C2.97 1.95 4.65 3.96 5.89 7.24 C6.5 11.7 6.55 16.13 6.58 20.62 C6.62 23 6.67 25.38 6.72 27.77 C6.74 28.88 6.76 30 6.78 31.15 C6.92 34.9 7.33 38.53 7.89 42.24 C4.92 42.24 1.95 42.24 -1.11 42.24 C-1.44 41.25 -1.77 40.26 -2.11 39.24 C-2.81 39.73 -3.51 40.21 -4.23 40.71 C-9.03 43.26 -13.81 42.87 -19.11 42.24 C-23.3 40.4 -24.68 38.92 -27.11 35.05 C-28.38 30.21 -28.12 26.83 -26.11 22.24 C-21.84 17.35 -17.47 15.96 -11.11 15.24 C-8.08 15.11 -5.13 15.15 -2.11 15.24 C-2.44 12.6 -2.77 9.96 -3.11 7.24 C-5.75 6.36 -7.39 6.08 -10.11 6.05 C-10.79 6.04 -11.47 6.03 -12.17 6.01 C-14.43 6.13 -14.43 6.13 -17.11 8.24 C-18.3 10.29 -18.3 10.29 -19.11 12.24 C-21.42 12.24 -23.73 12.24 -26.11 12.24 C-27.11 9.24 -27.11 9.24 -25.98 6.8 C-19.36 -2.25 -10.13 -3.34 0 0 Z M-12.29 22.12 C-13.58 22.36 -13.58 22.36 -14.9 22.61 C-17.29 23.1 -17.29 23.1 -19.11 25.24 C-19.54 29.87 -19.54 29.87 -18.11 34.18 C-14.83 35.92 -11.67 35.81 -8.11 35.24 C-4.48 34.1 -4.48 34.1 -2.11 31.24 C-1.61 27.85 -1.76 24.64 -2.11 21.24 C-5.63 21.15 -8.84 21.44 -12.29 22.12 Z " fill="#61DAFB" transform="translate(342.10546875,451.7578125)"/>
<path d="M0 0 C3.89 3.03 5.52 6.32 7 11 C7 14.63 7 18.26 7 22 C-2.24 22 -11.48 22 -21 22 C-18.94 29.28 -18.94 29.28 -14 33 C-9.9 34.06 -7.76 34.31 -3.81 32.69 C-2.88 32.13 -1.96 31.57 -1 31 C0.33 30.33 1.67 29.67 3 29 C4.56 30.25 4.56 30.25 6 32 C6 33.94 6 33.94 5 36 C-0.68 41.23 -5.37 41.29 -12.83 41.21 C-18.41 40.84 -20.95 39.09 -24.75 35.12 C-29.79 28.13 -29.75 21.41 -29 13 C-27.38 6.57 -24.45 2.67 -19 -1 C-12.42 -4.54 -6.41 -3.39 0 0 Z M-18 7 C-18.99 9.64 -19.98 12.28 -21 15 C-14.4 15 -7.8 15 -1 15 C-1.49 9.36 -1.49 9.36 -3.62 6.69 C-8.51 3.21 -13.52 2.89 -18 7 Z " fill="#61DAFB" transform="translate(115,453)"/>
<path d="M0 0 C4.1 4 5.95 7.38 7 13 C7 15.97 7 18.94 7 22 C-2.24 22 -11.48 22 -21 22 C-18.76 29.66 -18.76 29.66 -15 33 C-10.36 34.07 -8.13 34.45 -3.69 32.69 C-1.77 31.49 0.12 30.25 2 29 C3.32 29.99 4.64 30.98 6 32 C5.66 35.13 5 36 2.62 38.19 C-3.24 42.24 -10.13 41.56 -17 41 C-21.94 38.75 -24.81 35.29 -28 31 C-30.25 24.25 -30.39 13.81 -27.38 7.31 C-21.05 -2.81 -10.53 -5.85 0 0 Z M-18 7 C-20.31 10.76 -20.31 10.76 -21 15 C-14.4 15 -7.8 15 -1 15 C-1.49 9.36 -1.49 9.36 -3.62 6.69 C-8.58 3.17 -13.38 3.02 -18 7 Z " fill="#61DAFB" transform="translate(469,453)"/>
<path d="M0 0 C3.75 3.75 6 7.63 6 13 C3.36 13 0.72 13 -2 13 C-2.43 12.05 -2.87 11.1 -3.31 10.12 C-4.79 6.8 -4.79 6.8 -8 5 C-11.15 4.72 -13.97 5.11 -17 6 C-20.51 9 -20.87 10.74 -21.34 15.3 C-21.51 21.76 -21.37 26.35 -18 32 C-15.36 34.17 -13.97 34 -10.5 33.88 C-6.7 32.93 -5.39 32.03 -3 29 C-2.67 28.34 -2.34 27.68 -2 27 C0.64 27 3.28 27 6 27 C4.84 33.44 2.31 36.27 -3 40 C-7.81 42.4 -15.2 41.8 -20.27 40.35 C-25.85 37.5 -28.09 32.72 -30 27 C-31.22 9.03 -31.22 9.03 -26 3 C-18.42 -3.96 -9.14 -5 0 0 Z " fill="#61DAFB" transform="translate(201,453)"/>
<path d="M0 0 C2.64 0 5.28 0 8 0 C11.3 9.57 14.6 19.14 18 29 C20.92 19.83 20.92 19.83 23.83 10.66 C24.2 9.53 24.56 8.39 24.93 7.22 C25.31 6.05 25.68 4.89 26.06 3.68 C27 1 27 1 28 0 C30.67 -0.14 33.32 -0.04 36 0 C33.93 8.39 31.14 16.45 28.13 24.54 C27.37 26.59 26.61 28.64 25.85 30.7 C22.18 40.64 22.18 40.64 21 43 C19.02 43 17.04 43 15 43 C11.25 34.25 7.88 25.4 4.69 16.44 C4.23 15.17 3.77 13.9 3.31 12.63 C2.88 11.43 2.45 10.23 2.01 9 C1.62 7.92 1.24 6.83 0.84 5.72 C0 3 0 3 0 0 Z " fill="#61DAFB" transform="translate(400,451)"/>
<path d="M0 0 C2.97 0 5.94 0 9 0 C9 3.3 9 6.6 9 10 C11.31 10 13.62 10 16 10 C16 11.98 16 13.96 16 16 C13.69 16 11.38 16 9 16 C9.5 30.36 9.5 30.36 10 45 C13.47 45.5 13.47 45.5 17 46 C17.04 48 17.04 50 17 52 C15.27 53.73 13.04 53.29 10.69 53.38 C5.39 53.33 5.39 53.33 2.38 50.75 C0.11 46.21 -0.12 42.55 -0.1 37.48 C-0.09 35.61 -0.09 35.61 -0.09 33.7 C-0.08 32.39 -0.07 31.09 -0.06 29.75 C-0.06 28.43 -0.05 27.12 -0.05 25.76 C-0.04 22.51 -0.02 19.25 0 16 C-2.31 16 -4.62 16 -7 16 C-7 14.02 -7 12.04 -7 10 C-4.69 10 -2.38 10 0 10 C0 6.7 0 3.4 0 0 Z " fill="#61DAFB" transform="translate(216,441)"/>
<path d="M0 0 C2.64 0 5.28 0 8 0 C8 3.3 8 6.6 8 10 C10.64 10 13.28 10 16 10 C16 11.98 16 13.96 16 16 C13.36 16 10.72 16 8 16 C8.33 25.9 8.66 35.8 9 46 C11.31 46 13.62 46 16 46 C16 48.31 16 50.62 16 53 C5.91 53.63 5.91 53.63 2.38 51.19 C-0.17 47.14 -0.12 43.83 -0.1 39.14 C-0.1 38.48 -0.09 37.82 -0.09 37.14 C-0.09 35.03 -0.08 32.92 -0.06 30.81 C-0.06 29.38 -0.05 27.95 -0.05 26.52 C-0.04 23.01 -0.02 19.51 0 16 C-2.31 16 -4.62 16 -7 16 C-7 14.02 -7 12.04 -7 10 C-4.69 10 -2.38 10 0 10 C0 6.7 0 3.4 0 0 Z " fill="#61DAFB" transform="translate(361,441)"/>
<path d="M0 0 C2.64 0 5.28 0 8 0 C8 14.19 8 28.38 8 43 C5.36 43 2.72 43 0 43 C0 28.81 0 14.62 0 0 Z " fill="#61DAFB" transform="translate(385,451)"/>
<path d="M0 0 C3.06 0.19 3.06 0.19 5.06 2.19 C5.31 4.69 5.31 4.69 5.06 7.19 C3.06 9.19 3.06 9.19 0.56 9.44 C-1.94 9.19 -1.94 9.19 -3.94 7.19 C-4.12 4.12 -4.12 4.12 -3.94 1.19 C-2.94 0.19 -2.94 0.19 0 0 Z " fill="#61DAFB" transform="translate(388.9375,435.8125)"/>
</svg>
